<?xml version="1.0" encoding="UTF-8"?>
<svg version="1.1" xmlns="http://www.w3.org/2000/svg" width="2400" height="2400">
<path d="M0 0 C180.18 0 360.36 0 546 0 C549 9 549 9 550.32421875 13.0703125 C556.64469837 32.10133463 566.32548596 47.24493853 580 62 C578.43670008 65.99199802 575.63959318 68.41626358 572.5 71.1875 C571.96101074 71.67162354 571.42202148 72.15574707 570.86669922 72.65454102 C569.76585467 73.64257416 568.66283379 74.62818802 567.55761719 75.61132812 C565.39812298 77.53659506 563.26442576 79.48998286 561.125 81.4375 C556.59289505 85.51203666 551.96075012 89.46221572 547.31958008 93.41113281 C543.40506551 96.7559642 539.58423551 100.18292652 535.8125 103.6875 C531.34464185 107.83261852 526.72713449 111.7326969 521.98046875 115.5546875 C518.42709326 118.47003882 514.9627909 121.4781491 511.5 124.5 C506.31740268 129.01812846 501.0752494 133.43927375 495.73046875 137.765625 C493.23431128 139.8082603 490.77395108 141.88499073 488.3215332 143.97949219 C482.79344338 148.70062792 477.17577798 153.27263503 471.43774414 157.73608398 C466.94439081 161.23708569 462.52909431 164.82514696 458.125 168.4375 C452.14670248 173.32890007 446.04978289 178.02472443 439.84887695 182.62963867 C435.61835521 185.77427317 431.44391266 188.97640644 427.3125 192.25 C414.05663072 202.73278013 400.62406287 212.98241097 386.80908203 222.71777344 C383.27181833 225.22488666 379.76298146 227.77153709 376.25 230.3125 C375.48888916 230.86204346 374.72777832 231.41158691 373.94360352 231.9777832 C370.16448293 234.70717018 366.39020005 237.44284407 362.625 240.19140625 C344.01582843 253.7534563 324.83742599 266.47035125 305.6875 279.25 C304.79289062 279.84732941 303.89828125 280.44465881 302.9765625 281.06008911 C269.58952948 303.34322585 235.64901997 324.72864724 201 345 C199.03511126 346.15356921 197.07026856 347.30721683 195.10546875 348.4609375 C183.86768025 355.04807342 172.58182053 361.54127736 161.22094727 367.9140625 C160.31658936 368.42195313 159.41223145 368.92984375 158.48046875 369.453125 C157.68535889 369.89817383 156.89024902 370.34322266 156.07104492 370.80175781 C154.34124929 371.80256378 152.66281156 372.89145896 151 374 C146.90025997 373.73076084 144.92922761 372.42817315 142.07387829 369.5660696 C140.95122563 368.45536324 140.95122563 368.45536324 139.80589312 367.32221836 C138.99557629 366.50025016 138.18525946 365.67828196 137.35038757 364.83140564 C136.48040235 363.96483811 135.61041712 363.09827059 134.71406871 362.20544344 C132.30086492 359.79769402 129.89697186 357.38128172 127.49655807 354.96082056 C124.90603406 352.35303753 122.3039759 349.75680899 119.70329285 347.15916443 C115.19890137 342.65687129 110.70189688 338.14730698 106.20981407 333.6327343 C99.71499943 327.10542419 93.20917961 320.58917532 86.70061288 314.07558114 C76.14144617 303.50765793 65.59124469 292.93083123 55.04663086 282.34838867 C44.80294361 272.06799053 34.55506743 261.79179807 24.30151367 251.52124023 C23.66958423 250.8882599 23.03765478 250.25527956 22.38657596 249.60311799 C19.21637487 246.42769679 16.04609108 243.25235816 12.87576616 240.07706058 C-13.42899022 213.73083112 -39.71921899 187.37014424 -66 161 C-64.65434341 158.24057233 -63.26154216 155.89251529 -61.34765625 153.48828125 C-60.82421631 152.82223877 -60.30077637 152.15619629 -59.76147461 151.4699707 C-59.20081299 150.75800537 -58.64015137 150.04604004 -58.0625 149.3125 C-33.32820904 117.3253739 -15.7167272 80.12032735 -6.75 40.6875 C-6.52795898 39.7190918 -6.30591797 38.75068359 -6.07714844 37.75292969 C-3.39564804 25.25657837 -1.87844986 12.67953653 0 0 Z " fill="#000000" transform="translate(1412,1148)"/>
<path d="M0 0 C0 218.79 0 437.58 0 663 C-14.355 665.475 -14.355 665.475 -29 668 C-37.99585002 670.13173228 -37.99585002 670.13173228 -46.93212891 672.44677734 C-50.27727084 673.34171142 -53.63866534 674.1682121 -57 675 C-65.75876944 654.57665223 -74.16096013 634.01085961 -82.55575562 613.43595886 C-86.40020214 604.01488903 -90.26094152 594.60053941 -94.125 585.1875 C-94.78346196 583.58309522 -95.44190923 581.97868442 -96.1003418 580.37426758 C-97.41087469 577.18095043 -98.72151622 573.9876779 -100.03222656 570.79443359 C-103.02149664 563.51150157 -106.00925625 556.22794989 -108.99716187 548.94445801 C-110.00038176 546.49906945 -111.00371419 544.0537271 -112.00708008 541.60839844 C-114.98041827 534.36181702 -117.95326262 527.11503564 -120.92306519 519.86700439 C-122.55247904 515.89033986 -124.18235678 511.91386559 -125.8125 507.9375 C-126.13899536 507.14108093 -126.46549072 506.34466187 -126.80187988 505.52410889 C-131.86497279 493.17665318 -136.95612079 480.84095329 -142.05706787 468.50909424 C-149.14312655 451.37747332 -156.18812115 434.22972637 -163.1875 417.0625 C-163.60752289 416.03234772 -164.02754578 415.00219543 -164.46029663 413.94082642 C-165.30121328 411.87830501 -166.14212015 409.81577961 -166.98301697 407.75325012 C-167.39338699 406.74670883 -167.80375702 405.74016754 -168.2265625 404.703125 C-168.63302505 403.70613083 -169.03948761 402.70913666 -169.45826721 401.68193054 C-173.3160362 392.22122409 -177.18486588 382.76508085 -181.0625 373.3125 C-181.38217743 372.53317108 -181.70185486 371.75384216 -182.03121948 370.95089722 C-187.01764721 358.79835145 -192.0327252 346.65774342 -197.05303955 334.51916504 C-197.4480365 333.56409058 -197.84303345 332.60901611 -198.25 331.625 C-198.64467468 330.6707312 -199.03934937 329.7164624 -199.44598389 328.73327637 C-205.73381608 313.5261953 -211.97474238 298.30039736 -218.1875 283.0625 C-218.60752289 282.03234772 -219.02754578 281.00219543 -219.46029663 279.94082642 C-220.30121328 277.87830501 -221.14212015 275.81577961 -221.98301697 273.75325012 C-222.39338699 272.74670883 -222.80375702 271.74016754 -223.2265625 270.703125 C-223.63302505 269.70613083 -224.03948761 268.70913666 -224.45826721 267.68193054 C-228.3160362 258.22122409 -232.18486588 248.76508085 -236.0625 239.3125 C-236.38217743 238.53317108 -236.70185486 237.75384216 -237.03121948 236.95089722 C-242.01764721 224.79835145 -247.0327252 212.65774342 -252.05303955 200.51916504 C-252.4480365 199.56409058 -252.84303345 198.60901611 -253.25 197.625 C-253.64467468 196.6707312 -254.03934937 195.7164624 -254.44598389 194.73327637 C-261.99734325 176.47036311 -269.47203236 158.17663568 -276.93247986 139.87643433 C-277.33890213 138.87951569 -277.7453244 137.88259705 -278.1640625 136.85546875 C-278.56722183 135.86652618 -278.97038116 134.87758362 -279.38575745 133.8586731 C-283.25201623 124.37725067 -287.13036741 114.90080489 -291.01577759 105.42721558 C-291.70444534 103.74804206 -292.39290726 102.06878411 -293.08114624 100.38943481 C-294.02355141 98.09010648 -294.96671873 95.79109241 -295.91015625 93.4921875 C-296.181091 92.8309639 -296.45202576 92.1697403 -296.73117065 91.48847961 C-298.24721233 87.78443225 -298.24721233 87.78443225 -299.85812378 84.12115479 C-301.38890562 80.74897011 -302 78.78787872 -302 75 C-222.63992951 38.87796577 -139.41901327 14.24167133 0 0 Z " fill="#000000" transform="translate(1104,184)"/>
<path d="M0 0 C8.68101704 20.87300843 17.32932112 41.75867184 25.875 62.6875 C32.04833257 77.8062635 38.25752701 92.90965257 44.5 108 C52.6368871 127.67192424 60.70904475 147.36978113 68.76080322 167.07667542 C72.54029109 176.32547055 76.33152393 185.56943512 80.125 194.8125 C80.45172699 195.60864716 80.77845398 196.40479431 81.11508179 197.22506714 C82.75399699 201.21862152 84.39306496 205.21211316 86.03222656 209.20556641 C89.02149664 216.48849843 92.00925625 223.77205011 94.99716187 231.05554199 C96.00038176 233.50093055 97.00371419 235.9462729 98.00708008 238.39160156 C100.98040787 245.63815764 103.95324054 252.88491421 106.92303467 260.13291931 C114.37894781 278.32945546 121.86069037 296.51499509 129.375 314.6875 C137.55237282 334.46408898 145.66664557 354.26599781 153.76083374 374.07675171 C159.18070262 387.3397197 164.62405771 400.59306073 170.06488037 413.84744263 C172.34078773 419.39228395 174.61424939 424.9381239 176.88671875 430.484375 C184.02227244 447.89673174 191.1843818 465.29780609 198.375 482.6875 C205.42289421 499.73249844 212.43190393 516.79298691 219.40576172 533.8684082 C220.13897595 535.66358298 220.87221155 537.45874903 221.60546875 539.25390625 C221.965802 540.13609329 222.32613525 541.01828033 222.6973877 541.92720032 C225.32644996 548.36036595 227.96750593 554.78853581 230.61328125 561.21484375 C231.35849554 563.02611658 232.10369438 564.83739576 232.84887695 566.64868164 C233.91218707 569.23306165 234.97613086 571.81716967 236.04232788 574.40036011 C237.00912469 576.74275712 237.97353282 579.0861249 238.9375 581.4296875 C239.21995071 582.11195908 239.50240143 582.79423065 239.79341125 583.49717712 C241.35009638 587.28872466 242.75083212 591.09635037 244 595 C243.01644531 595.55945313 242.03289062 596.11890625 241.01953125 596.6953125 C214.48759005 611.74435236 214.48759005 611.74435236 191 631 C187.68104286 630.66833579 186.0059708 629.38054735 183.6947372 627.06733268 C183.05791129 626.43724866 182.42108538 625.80716463 181.76496172 625.15798715 C180.72666885 624.10787271 180.72666885 624.10787271 179.66740036 623.03654385 C178.92327731 622.29588233 178.17915426 621.55522081 177.41248202 620.792115 C174.89806368 618.28569501 172.39456846 615.76863522 169.89080811 613.25157166 C168.08133401 611.44340467 166.27120127 609.6358966 164.46046376 607.82899481 C160.51294536 603.88770572 156.57105209 599.94085927 152.63274765 595.99036407 C146.77657958 590.11611894 140.9118609 584.2504673 135.04533061 578.386573 C125.17798771 568.52317551 115.31765355 558.65279938 105.46126556 548.77845573 C95.69920969 538.99866159 85.93406944 529.22196436 76.16477203 519.44940376 C75.5578271 518.84225261 74.95088217 518.23510146 74.32554497 517.60955179 C71.24328519 514.52627704 68.16096999 511.44305768 65.07863346 508.35985965 C43.23457016 486.50949158 21.39747363 464.65217312 -0.43554688 442.79077148 C-21.64882535 421.54994929 -42.86524568 400.31227342 -64.0859375 379.07885742 C-65.06674308 378.09745998 -65.06674308 378.09745998 -66.06736291 377.09623632 C-72.63367526 370.52596848 -79.20005166 363.95576463 -85.76647497 357.38560768 C-99.14357693 344.00089665 -112.5202514 330.61575842 -125.89666748 317.23036194 C-126.51172247 316.61489508 -127.12677746 315.99942822 -127.76047048 315.36531085 C-168.84747472 274.25069478 -209.92448073 233.12608973 -251 192 C-248.76962018 188.14647048 -246.46754988 185.28014499 -243.25 182.1875 C-240.32754291 179.37072925 -237.55300601 176.51300415 -234.91796875 173.4296875 C-230.40885711 168.22333473 -225.53442 163.3845381 -220.6574707 158.52709961 C-219.06541034 156.94040054 -217.4787701 155.34842258 -215.89257812 153.75585938 C-210.9596828 148.8200769 -206.00090823 143.96205026 -200.66772461 139.45336914 C-198.85946476 137.87752799 -197.17913383 136.2120727 -195.5 134.5 C-191.83705246 130.78799513 -187.95273697 127.39873131 -184 124 C-182.87058085 123.01881925 -181.7417224 122.03699288 -180.61328125 121.0546875 C-167.97388199 110.05786428 -155.26937649 99.23255737 -142 89 C-141.21028809 88.38962891 -140.42057617 87.77925781 -139.60693359 87.15039062 C-103.98040216 59.65873087 -66.38483376 34.77511672 -27 13 C-25.90961426 12.39462402 -24.81922852 11.78924805 -23.69580078 11.16552734 C-20.38511883 9.33104312 -17.06879873 7.50725256 -13.75 5.6875 C-12.71963623 5.11773437 -11.68927246 4.54796875 -10.62768555 3.9609375 C-9.67289307 3.44144531 -8.71810059 2.92195313 -7.734375 2.38671875 C-6.89100586 1.92483154 -6.04763672 1.46294434 -5.17871094 0.98706055 C-3 0 -3 0 0 0 Z " fill="#000000" transform="translate(760,280)"/>
<path d="M0 0 C35.66198814 1.18873294 35.66198814 1.18873294 49.25 2.25 C50.06675201 2.31246918 50.88350403 2.37493835 51.7250061 2.43930054 C111.5400242 7.06666006 169.97934557 17.96705955 228 33 C227.9592334 33.66829834 227.9184668 34.33659668 227.87646484 35.02514648 C225.72510101 72.01400808 233.3209704 104.54971437 258 133 C264.03307785 139.69223052 270.42084231 145.12998804 278 150 C276.02108671 156.24041209 273.7264473 162.26573128 271.1484375 168.28125 C270.59187218 169.59236252 270.59187218 169.59236252 270.02406311 170.92996216 C269.22644518 172.80834665 268.42735596 174.68610696 267.62692261 176.56329346 C265.4713955 181.61963682 263.32784019 186.68105237 261.18359375 191.7421875 C260.52747856 193.28995377 260.52747856 193.28995377 259.85810852 194.86898804 C255.66655949 204.76650991 251.54320891 214.69162602 247.4375 224.625 C241.67666041 238.5546768 235.88732106 252.47194733 230.0625 266.375 C229.6893869 267.2656012 229.3162738 268.15620239 228.93185425 269.0737915 C227.04369451 273.58029516 225.1550188 278.08658234 223.26611328 282.59277344 C219.88248869 290.66546537 216.50341363 298.74006173 213.12399292 306.81451416 C211.24951476 311.29308736 209.3747425 315.77153745 207.5 320.25 C206.74999859 322.04166608 205.99999859 323.83333274 205.25 325.625 C203.75 329.20833333 202.25 332.79166667 200.75 336.375 C200.19310989 337.70535027 200.19310989 337.70535027 199.62496948 339.06257629 C198.87507443 340.85399 198.12517615 342.64540235 197.37527466 344.43681335 C195.49864256 348.91983933 193.62206666 353.40288881 191.74560547 357.88598633 C188.39014201 365.90245176 185.03431624 373.91876428 181.67633057 381.93417358 C173.43139295 401.61469089 165.2027263 421.30184814 157 441 C148.4305292 461.57885769 139.83138056 482.14514909 131.21777344 502.70556641 C127.85247992 510.73881778 124.48986792 518.77319169 121.12701416 526.8074646 C119.25144886 531.28835414 117.37571609 535.76917358 115.5 540.25 C114.74999919 542.04166633 113.99999919 543.833333 113.25 545.625 C108.75000004 556.37499991 108.75000004 556.37499991 107.62503052 559.06242371 C106.87492557 560.85434334 106.12482385 562.64626432 105.37472534 564.43818665 C103.50135741 568.913494 101.62793376 573.38877802 99.75439453 577.86401367 C95.23504649 588.65935585 95.23504649 588.65935585 90.71777344 599.45556641 C90.1515477 600.80920288 90.1515477 600.80920288 89.57388306 602.19018555 C88.81123825 604.01355206 88.04868531 605.83695699 87.28622437 607.66040039 C85.40734805 612.15302252 83.52625331 616.64468959 81.64013672 621.13427734 C78.25595137 629.19348165 74.88567706 637.25707828 71.58236694 645.34983826 C70.12043241 648.9274354 68.64735803 652.50038931 67.1729126 656.07284546 C66.47934381 657.76200801 65.79122626 659.45342006 65.10882568 661.14712524 C64.17207182 663.47111939 63.21718521 665.78683364 62.2578125 668.1015625 C61.84961273 669.13564995 61.84961273 669.13564995 61.4331665 670.19062805 C59.51982744 674.73368961 59.51982744 674.73368961 57.05566406 675.99609375 C54.76152065 676.00045317 53.04006376 675.6540043 50.8515625 674.9609375 C50.02503174 674.71239014 49.19850098 674.46384277 48.34692383 674.20776367 C47.44868896 673.93295166 46.5504541 673.65813965 45.625 673.375 C32.5278951 669.5555255 19.20813751 667.50749772 5.74536133 665.47729492 C3 665 3 665 0 664 C0 444.88 0 225.76 0 0 Z " fill="#000000" transform="translate(1161,183)"/>
<path d="M0 0 C3.13381302 1.38954328 5.61870176 3.62146461 8.23752058 5.79106063 C15.49993252 11.6426919 23.05699991 16.85396009 30.92502058 21.85356063 C31.50799909 22.22690535 32.09097761 22.60025008 32.69162214 22.98490828 C93.25180051 61.48460665 169.77525186 75.04596337 239.92502058 59.85356063 C245.18168662 58.59202481 250.40985739 57.23426565 255.61764753 55.78422469 C256.51829938 55.5338243 257.41895124 55.28342391 258.34689558 55.02543563 C259.13676862 54.79952742 259.92664167 54.57361922 260.74045026 54.34086531 C262.92502058 53.85356063 262.92502058 53.85356063 266.92502058 53.85356063 C267.20047208 54.53703566 267.47592359 55.2205107 267.75972211 55.9246971 C271.0051019 63.97722575 274.25093719 72.02957069 277.49708402 80.08179015 C278.07348233 81.51158286 278.64987039 82.94137971 279.22624815 84.37118071 C285.7570447 100.57184493 292.28992069 116.77160628 298.85348737 132.95902938 C300.18512035 136.24336301 301.51474198 139.52849783 302.8422569 142.81449813 C303.16844511 143.62190444 303.49463331 144.42931075 303.830706 145.26118392 C304.48785345 146.88792426 305.14492789 148.51469409 305.80192792 150.14149398 C308.08727233 155.79527383 310.38931026 161.44209067 312.69645917 167.08700484 C314.407413 171.27953206 316.10902348 175.4758128 317.80884016 179.67286605 C318.62958763 181.69348575 319.45429282 183.71250286 320.28314435 185.72981185 C321.42670154 188.51439007 322.55629902 191.30424829 323.68283308 194.09574813 C324.20009206 195.34095984 324.20009206 195.34095984 324.72780073 196.61132735 C325.0340991 197.37817351 325.34039747 198.14501967 325.65597761 198.9351036 C325.9266908 199.59896071 326.197404 200.26281783 326.47632062 200.94679183 C327.03042373 203.30147564 326.80028042 204.60851168 325.92502058 206.85356063 C324.01801139 208.4856057 322.15636877 209.91619298 320.11252058 211.35356063 C294.74714269 230.11881736 279.0366452 257.80389486 273.92502058 288.85356063 C272.96599492 296.07427395 272.79937428 303.20216475 272.86252058 310.47856063 C272.86928815 311.98483016 272.86928815 311.98483016 272.87619245 313.52152938 C272.88783091 315.96560533 272.90417818 318.40954883 272.92502058 320.85356063 C258.46056187 323.45006663 243.96977675 325.41822893 229.36252058 326.97856063 C228.63458295 327.05860335 227.90664533 327.13864608 227.15664899 327.22111434 C200.08185897 330.17522589 173.00574491 331.24045379 145.78880537 331.17161864 C143.50343986 331.16594499 141.21808188 331.16314537 138.93271101 331.16053694 C114.4912137 331.12006897 90.2483538 330.38675781 65.92502058 327.85356063 C64.20531047 327.68005762 62.4855835 327.50672163 60.76584089 327.3335411 C-21.2038373 318.9612928 -100.85117353 297.91738197 -237.07497942 236.85356063 C-235.61698375 233.50307562 -233.77378785 231.29942714 -231.20120966 228.71972865 C-230.38806319 227.89951659 -229.57491672 227.07930452 -228.73712945 226.23423755 C-227.39007426 224.89080499 -227.39007426 224.89080499 -226.01580584 223.52023238 C-225.05543224 222.55540664 -224.09549047 221.5901509 -223.13594437 220.62450218 C-220.49614073 217.97050626 -217.85009568 215.32281043 -215.20296776 212.67612249 C-212.34999923 209.82150693 -209.50275134 206.961195 -206.6547066 204.10166854 C-200.42674015 197.85084832 -194.19131361 191.6075052 -187.95443928 185.36557478 C-184.06260942 181.4704897 -180.17241503 177.57377409 -176.28257143 173.67670554 C-165.51824464 162.89281586 -154.75234231 152.11050632 -143.97968256 141.33494014 C-142.94561717 140.30059338 -142.94561717 140.30059338 -141.89066156 139.24535074 C-140.49306763 137.84739055 -139.09547241 136.44943164 -137.69787593 135.051474 C-136.65719353 134.01051738 -136.65719353 134.01051738 -135.59548724 132.94853133 C-134.55353774 131.90631101 -134.55353774 131.90631101 -133.49053876 130.84303574 C-122.22233861 119.57129001 -110.96593717 108.28784088 -99.71465953 96.99920573 C-88.17071445 85.41723747 -76.6174927 73.84459325 -65.05467129 62.28146935 C-58.55952334 55.78573564 -52.06842386 49.2860673 -45.58741915 42.77621955 C-40.07181381 37.23618085 -34.54777836 31.70472763 -29.01239718 26.18444511 C-26.18632437 23.36557309 -23.36451824 20.54274167 -20.55335581 17.70899314 C-17.98311656 15.11830102 -15.40175707 12.53927537 -12.81079786 9.96931002 C-11.42558525 8.58929504 -10.05275837 7.19688266 -8.68031621 5.80416667 C-7.45277326 4.59340669 -7.45277326 4.59340669 -6.20043147 3.3581869 C-5.4952358 2.65217678 -4.79004013 1.94616665 -4.06347489 1.21876228 C-2.07497942 -0.14643937 -2.07497942 -0.14643937 0 0 Z " fill="#000000" transform="translate(951.0749794244766,1341.1464393734932)"/>
<path d="M0 0 C21.32439113 12.91675674 40.99327785 28.74525524 60.2265625 44.546875 C61.8432593 45.87156929 63.46808288 47.1863296 65.09375 48.5 C70.34106252 52.74501687 75.43619534 57.10979679 80.41796875 61.6640625 C81.81030194 62.92369223 83.20863392 64.17743051 84.63891602 65.39379883 C90.68559685 70.55632859 96.29303706 76.14112247 101.90014648 81.76977539 C103.5592732 83.43426277 105.22368051 85.09333447 106.88867188 86.75195312 C111.93655731 91.7966808 116.90686406 96.86762758 121.54370117 102.29858398 C123.74744109 104.87324677 126.06512051 107.33267442 128.375 109.8125 C132.64395194 114.43299549 136.68031294 119.19106752 140.625 124.09375 C143.33467647 127.40953831 146.13182247 130.64058473 148.9375 133.875 C154.56609391 140.38083593 159.83586221 147.12209967 165 154 C163.6687694 156.95292535 162.2171129 159.03258415 159.93031013 161.31808686 C159.29511198 161.9577796 158.65991382 162.59747235 158.00546724 163.25654972 C156.95448029 164.29965563 156.95448029 164.29965563 155.88226128 165.36383438 C155.13706917 166.11133418 154.39187706 166.85883398 153.62410337 167.62898529 C151.10593693 170.15247898 148.58065264 172.66872913 146.0553894 175.18511963 C144.23832368 177.00305686 142.42169724 178.82143326 140.60547459 180.64021277 C136.64573507 184.60410348 132.68228616 188.56425481 128.71640778 192.52200317 C122.81928347 198.4070719 116.92788775 204.29785024 111.03766718 210.18982774 C101.12987388 220.1002508 91.21742627 230.00600624 81.30233383 239.90912628 C71.48264723 249.71698602 61.66502504 259.52690463 51.85016251 269.33959198 C51.2403074 269.9493096 50.6304523 270.55902723 50.00211674 271.18722115 C46.90508553 274.2835757 43.80809126 277.3799672 40.7111112 280.47637293 C18.76501833 302.418263 -3.18570964 324.35551072 -25.13916016 346.29003906 C-46.46897971 367.60149515 -67.79670148 388.91504705 -89.12158203 410.23144531 C-89.77870358 410.88830381 -90.43582513 411.54516231 -91.11285945 412.22192561 C-97.71183505 418.81826421 -104.31076798 425.4146455 -110.90966963 432.01105807 C-124.35285236 445.44916812 -137.79631993 458.88699319 -151.23995972 472.324646 C-151.85810026 472.94251196 -152.47624081 473.56037793 -153.11311289 474.19696711 C-194.40397116 515.46941854 -235.70149026 556.73520505 -277 598 C-280.62045375 596.27107218 -283.48225151 594.13432632 -286.625 591.625 C-298.05697215 582.68319309 -310.16646459 574.70551739 -322.9621582 567.85327148 C-326.07816291 566.17149596 -328.57910174 564.57427475 -331 562 C-315.20062959 523.71161293 -299.22251471 485.49733362 -283.21777344 447.29443359 C-279.85247992 439.26118222 -276.48986792 431.22680831 -273.12701416 423.1925354 C-271.25144886 418.71164586 -269.37571609 414.23082642 -267.5 409.75 C-266.74999919 407.95833367 -265.99999919 406.166667 -265.25 404.375 C-263.75 400.79166667 -262.25 397.20833333 -260.75 393.625 C-260.37873993 392.73809982 -260.00747986 391.85119965 -259.62496948 390.93742371 C-258.87507443 389.14601 -258.12517615 387.35459765 -257.37527466 385.56318665 C-255.49864256 381.08016067 -253.62206666 376.59711119 -251.74560547 372.11401367 C-248.39014201 364.09754824 -245.03431624 356.08123572 -241.67633057 348.06582642 C-233.43139295 328.38530911 -225.2027263 308.69815186 -217 289 C-208.4305292 268.42114231 -199.83138056 247.85485091 -191.21777344 227.29443359 C-187.85247992 219.26118222 -184.48986792 211.22680831 -181.12701416 203.1925354 C-179.25144886 198.71164586 -177.37571609 194.23082642 -175.5 189.75 C-174.74999919 187.95833367 -173.99999919 186.166667 -173.25 184.375 C-171.75 180.79166667 -170.25 177.20833333 -168.75 173.625 C-168.19310989 172.29464973 -168.19310989 172.29464973 -167.62496948 170.93742371 C-166.87507443 169.14601 -166.12517615 167.35459765 -165.37527466 165.56318665 C-163.49864256 161.08016067 -161.62206666 156.59711119 -159.74560547 152.11401367 C-156.39021604 144.09772508 -153.03448192 136.08158201 -149.67654419 128.06636047 C-148.19594946 124.53217525 -146.7156591 120.99786258 -145.2354126 117.46353149 C-144.49835403 115.70385632 -143.76117249 113.94423265 -143.02386475 112.18466187 C-138.51873265 101.43262776 -134.03079557 90.67364821 -129.5625 79.90625 C-128.64701678 77.70204873 -127.73148975 75.49786566 -126.81591797 73.29370117 C-125.05658519 69.05818095 -123.3009713 64.821145 -121.54736328 60.58325195 C-120.74265975 58.64528412 -119.93781653 56.70737428 -119.1328125 54.76953125 C-118.77316406 53.89748047 -118.41351562 53.02542969 -118.04296875 52.12695312 C-115.895098 46.96731722 -113.55463078 41.97139601 -111 37 C-110.34741211 37.07105957 -109.69482422 37.14211914 -109.02246094 37.21533203 C-74.88386464 40.79659634 -43.62424241 35.74999643 -16 14.1875 C-10.47733208 9.66814635 -5.2300187 4.85218465 0 0 Z " fill="#000000" transform="translate(1591,315)"/>
<path d="M0 0 C2.93647191 1.32561369 5.01264101 2.76293597 7.28602672 5.03762972 C7.91855237 5.66566079 8.55107803 6.29369186 9.20277113 6.94075418 C10.23384445 7.97970853 10.23384445 7.97970853 11.28574753 9.03965187 C12.02480546 9.77640211 12.76386339 10.51315235 13.52531701 11.27222836 C16.02009377 13.76167821 18.50762674 16.25824468 20.99530029 18.75479126 C22.79261353 20.55123298 24.59036594 22.34723541 26.38852143 24.14283407 C30.30705101 28.05781442 34.22243831 31.97589713 38.13512611 35.89671516 C43.95318844 41.72683337 49.77696059 47.55122257 55.60193186 53.37443693 C65.39966035 63.16953571 75.19272126 72.96928861 84.98314667 82.77168655 C94.67936289 92.47972974 104.37763804 102.18570838 114.07868195 111.88892746 C114.68146784 112.49185083 115.28425373 113.0947742 115.90530586 113.71596797 C118.96646019 116.77779896 122.02765147 119.83959301 125.08885697 122.90137284 C146.78117557 144.59789422 168.46885181 166.29905063 190.15380859 188.00292969 C211.22275163 209.09023626 232.29379051 230.17544497 253.36767578 251.2578125 C254.017064 251.90746377 254.66645222 252.55711504 255.33551886 253.22645271 C261.85684046 259.75041131 268.37820475 266.27432723 274.89960033 272.79821189 C288.18488087 286.0885651 301.46987642 299.37920316 314.75469971 312.67001343 C315.67095749 313.58668308 315.67095749 313.58668308 316.60572553 314.52187131 C357.40859088 355.34314342 398.20479124 396.17107637 439 437 C437.23826239 439.96869462 435.49008263 442.78259182 433.3203125 445.46875 C424.60474695 456.45160079 417.18153916 467.97016437 410 480 C408.87398637 481.87647521 407.74769202 483.75278199 406.62109375 485.62890625 C405.74730148 487.08588092 404.87356734 488.54289046 404 490 C398.10956119 488.11070201 392.36819998 486.01206356 386.6640625 483.62109375 C385.88442139 483.29726715 385.10478027 482.97344055 384.30151367 482.63980103 C381.74137667 481.5754585 379.18317435 480.50655022 376.625 479.4375 C374.80136542 478.67807374 372.97763294 477.91888253 371.15380859 477.15991211 C365.4338518 474.77810427 359.71671465 472.3895769 354 470 C352.19010693 469.24380849 350.38021115 468.48762347 348.5703125 467.73144531 C338.7488144 463.62706693 328.93032484 459.51552934 319.11331177 455.4004364 C310.13867827 451.63849489 301.16217394 447.88102858 292.18548584 444.12399292 C287.70691264 442.24951476 283.22846255 440.3747425 278.75 438.5 C276.95833392 437.74999859 275.16666726 436.99999859 273.375 436.25 C184.6875 399.125 96 362 -38.375 305.75 C-39.26177933 305.37879028 -40.14855865 305.00758057 -41.06221008 304.62512207 C-42.85484381 303.87471678 -44.64747687 303.12430988 -46.44010925 302.37390137 C-50.90447432 300.50508914 -55.36885091 298.63630443 -59.83325195 296.76757812 C-68.07219918 293.3188545 -76.31104076 289.86987922 -84.54948425 286.41995239 C-113.76448022 274.18540311 -113.76448022 274.18540311 -143 262 C-141.4958969 254.41513783 -139.21730052 247.23930004 -136.6875 239.9375 C-136.47169281 239.3139563 -136.25588562 238.6904126 -136.03353882 238.04797363 C-120.85574114 194.37784493 -101.20297237 151.95385044 -78 112 C-77.4023584 110.96037109 -76.8047168 109.92074219 -76.18896484 108.84960938 C-59.14738932 79.23769653 -40.07744538 50.89501668 -19 24 C-18.32324219 23.1339917 -18.32324219 23.1339917 -17.6328125 22.25048828 C-11.80454796 14.79409321 -5.93077513 7.37523326 0 0 Z " fill="#000000" transform="translate(478,507)"/>
<path d="M0 0 C2.39587988 2.97377065 4.69507121 5.92302563 6.77734375 9.125 C7.28394531 9.90278809 7.79054688 10.68057617 8.3125 11.48193359 C8.84875 12.31289551 9.385 13.14385742 9.9375 14 C10.50597656 14.87865723 11.07445312 15.75731445 11.66015625 16.66259766 C21.9750549 32.6660266 31.86313244 48.92013541 41.45751953 65.36474609 C42.87580473 67.78781834 44.30924722 70.2011901 45.74609375 72.61328125 C56.30170384 90.52062549 65.47422628 109.20048203 74.85498047 127.73925781 C75.87102397 129.74534797 76.88962622 131.75009581 77.91015625 133.75390625 C84.75657428 147.20396153 91.22614349 160.80180229 97.53515625 174.51171875 C99.90322794 179.6565527 102.31054241 184.78131225 104.74609375 189.89453125 C112.29818989 205.76519465 119.61778247 221.72043826 126.6875 237.8125 C127.26049332 239.11361221 127.26049332 239.11361221 127.84506226 240.44100952 C132.14105391 250.20921124 136.30029707 259.98724932 140 270 C134.41313907 272.86986218 128.78609262 275.41266788 122.96484375 277.765625 C121.67683617 278.29080719 121.67683617 278.29080719 120.36280823 278.82659912 C117.55552476 279.97058713 114.74650676 281.11025085 111.9375 282.25 C109.95558462 283.05693675 107.97381592 283.86423381 105.9921875 284.671875 C101.94298507 286.32204559 97.89327905 287.97097115 93.84326172 289.61914062 C86.17430082 292.74183881 78.51420456 295.88603168 70.85501099 299.03259277 C56.24223412 305.03532738 41.62230406 311.02051725 27 317 C8.25923976 324.66385767 -10.4748036 332.34397164 -29.20556641 340.03222656 C-38.11783428 343.69025544 -47.03095473 347.3462067 -55.94390869 351.00256348 C-58.38578799 352.00430068 -60.82766182 353.00605123 -63.26953125 354.0078125 C-64.07491333 354.33821533 -64.88029541 354.66861816 -65.71008301 355.0090332 C-70.53499264 356.9884957 -75.35971513 358.96841354 -80.1842804 360.94871521 C-84.18528948 362.59096637 -88.18638682 364.23300247 -92.1875 365.875 C-93.38546707 366.36666153 -93.38546707 366.36666153 -94.6076355 366.86825562 C-103.94147407 370.69868534 -113.27743829 374.52384675 -122.6171875 378.33984375 C-141.32205927 385.98287798 -160.01632296 393.64997136 -178.6875 401.375 C-196.82447045 408.87879297 -214.9877862 416.31636117 -233.16357422 423.72558594 C-235.20540868 424.55793036 -237.24723816 425.39028701 -239.2890625 426.22265625 C-240.28561859 426.62890228 -241.28217468 427.03514832 -242.30892944 427.45370483 C-251.81577754 431.3303681 -261.31519025 435.22503803 -270.8125 439.125 C-283.6043011 444.37744992 -296.39979257 449.6207569 -309.19918823 454.85467529 C-323.55661862 460.72580164 -337.9134868 466.59830383 -352.26568604 472.48220825 C-354.71289121 473.484797 -357.16083219 474.48557124 -359.60888672 475.48608398 C-366.62449688 478.35682265 -373.62556287 481.25137348 -380.5859375 484.25390625 C-381.70774414 484.73472656 -382.82955078 485.21554687 -383.98535156 485.7109375 C-386.00013992 486.57826785 -388.01038637 487.45627102 -390.01464844 488.34765625 C-390.87864258 488.71890625 -391.74263672 489.09015625 -392.6328125 489.47265625 C-393.36387207 489.79500244 -394.09493164 490.11734863 -394.84814453 490.44946289 C-397.61279675 491.15677974 -399.30687683 490.91744062 -402 490 C-403.27929688 488.53564453 -403.27929688 488.53564453 -404.21875 486.6328125 C-404.58677734 485.9214917 -404.95480469 485.2101709 -405.33398438 484.47729492 C-405.91116211 483.31290894 -405.91116211 483.31290894 -406.5 482.125 C-413.93829931 467.96176048 -423.12544519 454.99481216 -433.171875 442.56640625 C-434.9024606 440.13693031 -435.68887485 438.90875565 -436 436 C-434.97769434 434.35433851 -434.97769434 434.35433851 -433.32855374 432.70756125 C-432.70583113 432.07360218 -432.08310852 431.43964311 -431.44151554 430.78647316 C-430.73939391 430.0974866 -430.03727228 429.40850004 -429.31387424 428.6986351 C-428.21140862 427.58751565 -428.21140862 427.58751565 -427.08667096 426.45394933 C-424.59223204 423.94615421 -422.08018159 421.4567568 -419.56800842 418.96673584 C-417.76938892 417.16593833 -415.97186755 415.36404345 -414.17535871 413.5611403 C-410.25217561 409.62907386 -406.32128967 405.7049588 -402.38352585 401.78749847 C-396.52823947 395.96231915 -390.68727733 390.12293535 -384.84922628 384.28048896 C-375.02953903 374.45422339 -365.19822996 364.63966354 -355.36030769 354.83165741 C-345.61564267 345.11654929 -335.87614 335.39631373 -326.14352226 325.66913605 C-325.53900633 325.06496381 -324.93449039 324.46079157 -324.31165579 323.83831109 C-321.24181386 320.77016076 -318.17206425 317.70191808 -315.10235017 314.63363984 C-293.34359965 292.88539918 -271.57327263 271.14878069 -249.79614258 249.41894531 C-228.63631173 228.30501562 -207.48172353 207.18585576 -186.33422852 186.05957031 C-185.68268861 185.40868804 -185.03114871 184.75780577 -184.35986517 184.08719979 C-177.81700606 177.55093312 -171.27425357 171.01455973 -164.73157921 164.47810813 C-151.40267961 151.16189054 -138.07306829 137.84638548 -124.74302673 124.53131104 C-123.82363104 123.61294502 -123.82363104 123.61294502 -122.8856617 122.67602615 C-81.93569165 81.77208111 -40.96908088 40.88480265 0 0 Z " fill="#000000" transform="translate(1782,508)"/>
<path d="M0 0 C22.03370128 59.00817372 43.28584478 118.23561707 62.03536987 178.38269043 C62.75705474 180.69572026 63.48220942 183.00767056 64.21096802 185.31848145 C65.21784456 188.51861135 66.20896463 191.72317983 67.1953125 194.9296875 C67.49643448 195.87929352 67.79755646 196.82889954 68.10780334 197.80728149 C68.50714333 199.12446671 68.50714333 199.12446671 68.91455078 200.46826172 C69.14973419 201.22710663 69.3849176 201.98595154 69.62722778 202.76779175 C70.07985267 205.47816814 69.792926 207.37699736 69 210 C66.76953125 211.96484375 66.76953125 211.96484375 63.8125 213.9375 C41.38149113 229.76734445 27.89106948 252.12463263 20 278 C19.34 279.98 18.68 281.96 18 284 C-162.51 284 -343.02 284 -529 284 C-530.32 274.43 -531.64 264.86 -533 255 C-533.96010252 250.1558464 -534.91688345 245.45284861 -536.125 240.6875 C-536.37636719 239.64529297 -536.62773438 238.60308594 -536.88671875 237.52929688 C-537.57636509 234.68224904 -538.28394278 231.84050092 -539 229 C-539.39335168 227.42320764 -539.78659583 225.84638845 -540.1796875 224.26953125 C-540.45039062 223.19058594 -540.72109375 222.11164063 -541 221 C-519.19916022 211.61945356 -497.20621766 202.71071152 -475.22636414 193.76040649 C-465.43606218 189.7727786 -455.65398942 185.76527656 -445.875 181.75 C-444.28645947 181.09789761 -442.69791781 180.445798 -441.109375 179.79370117 C-437.97013262 178.50492021 -434.83098115 177.21591812 -431.69189453 175.92675781 C-423.73267073 172.65810574 -415.77269464 169.39128697 -407.8125 166.125 C-407.01527527 165.79786011 -406.21805054 165.47072021 -405.39666748 165.13366699 C-391.33528287 159.3640036 -377.26834879 153.6079535 -363.20010376 147.8550415 C-350.29666085 142.57831246 -337.39648616 137.29370805 -324.5 132 C-309.73747083 125.94032463 -294.96930011 119.89454036 -280.19873047 113.85449219 C-267.29574612 108.57794437 -254.39603005 103.29352083 -241.5 98 C-227.67072019 92.32340182 -213.83679123 86.65826385 -200 81 C-186.05943042 75.29913517 -172.12115875 69.59273658 -158.1875 63.875 C-157.39032562 63.54788025 -156.59315125 63.2207605 -155.77182007 62.88372803 C-150.18107965 60.58947781 -144.59051777 58.29479269 -139 56 C-132.60429245 53.37469345 -126.20850051 50.74959275 -119.8125 48.125 C-119.01572845 47.79804138 -118.21895691 47.47108276 -117.39804077 47.13421631 C-103.34594445 41.36837322 -89.28851091 35.61561958 -75.22930908 29.86712646 C-65.17506251 25.75615649 -55.12218294 21.64193023 -45.07421875 17.515625 C-44.1929129 17.15376099 -43.31160706 16.79189697 -42.40359497 16.41906738 C-38.25109481 14.71391979 -34.09891133 13.00800816 -29.94726562 11.30078125 C-25.63391385 9.52794774 -21.31768193 7.76225752 -17 6 C-16.27927307 5.70504639 -15.55854614 5.41009277 -14.815979 5.10620117 C-12.71868525 4.24928923 -10.61945212 3.39732539 -8.51953125 2.546875 C-7.31014893 2.05541992 -6.1007666 1.56396484 -4.85473633 1.05761719 C-2 0 -2 0 0 0 Z " fill="#000000" transform="translate(1941,821)"/>
<path d="M0 0 C5.15510269 0.60820327 9.36581997 2.23190636 14.0703125 4.2890625 C14.85087006 4.62383102 15.63142761 4.95859955 16.43563843 5.30351257 C18.11952967 6.0264544 19.80215902 6.75234118 21.48364258 7.48086548 C25.09237264 9.04402865 28.70745549 10.59223186 32.32232666 12.14112854 C34.1827676 12.93832759 36.04291357 13.73621534 37.902771 14.53477478 C46.41113875 18.18573113 54.9493237 21.76199297 63.5 25.3125 C64.95729965 25.91839869 66.41457471 26.52435653 67.87182617 27.13037109 C70.92616882 28.40021185 73.98080639 29.66934 77.03564453 30.93798828 C86.50485387 34.87070045 95.97169707 38.80909663 105.4375 42.75 C106.45055206 43.17170471 107.46360413 43.59340942 108.50735474 44.02789307 C124.2760602 50.59387298 140.01849843 57.22022061 155.74893188 63.87728882 C170.70334189 70.20431114 185.68896026 76.45235623 200.69360352 82.65917969 C212.93297779 87.72288455 225.15835124 92.81921449 237.375 97.9375 C238.2656012 98.3106131 239.15620239 98.6837262 240.0737915 99.06814575 C244.58029516 100.95630549 249.08658234 102.8449812 253.59277344 104.73388672 C261.66546537 108.11751131 269.74006173 111.49658637 277.81451416 114.87600708 C282.29308736 116.75048524 286.77153745 118.6252575 291.25 120.5 C293.04166608 121.25000141 294.83333274 122.00000141 296.625 122.75 C343.20833333 142.25 389.79166667 161.75 436.375 181.25 C437.26176926 181.62120468 438.14853851 181.99240936 439.06217957 182.37486267 C440.85491738 183.12531319 442.64765216 183.87577096 444.44038391 184.62623596 C448.90313722 186.49440234 453.36594219 188.36244509 457.82885742 190.23022461 C466.08710277 193.68654158 474.34488406 197.14395227 482.60083008 200.60575867 C486.40824596 202.20212812 490.2160126 203.7976602 494.02374268 205.39328003 C496.76936531 206.54441526 499.5143484 207.6970653 502.25927734 208.84985352 C509.67005489 211.95884046 517.08243479 215.05494648 524.55078125 218.0234375 C525.60612061 218.44423584 526.66145996 218.86503418 527.7487793 219.29858398 C529.58865261 220.02713071 531.43227506 220.74632334 533.28051758 221.45336914 C535.22125912 222.22072451 537.11807086 223.0979719 539 224 C540.1892938 227.56788141 539.71884163 228.78800866 538.70703125 232.35546875 C538.40812988 233.44166504 538.10922852 234.52786133 537.80126953 235.64697266 C537.47497559 236.81534668 537.14868164 237.9837207 536.8125 239.1875 C532.91477849 253.62788887 529.99771962 268.16748159 528.4609375 283.0546875 C528 287 528 287 527 289 C355.4 289 183.8 289 7 289 C-0.09254129 245.26266204 -0.09254129 245.26266204 -1.6875 230.4375 C-1.83534439 229.07794189 -1.83534439 229.07794189 -1.98617554 227.69091797 C-2.59783821 222.02018525 -3.17792155 216.3468649 -3.73571777 210.67059326 C-3.9850694 208.15087495 -4.24411478 205.63232737 -4.50488281 203.11376953 C-10.08685623 148.04671676 -9.68694155 90.04723577 -4 35 C-3.91325012 34.15348877 -3.82650024 33.30697754 -3.73712158 32.43481445 C-2.6190467 21.60708903 -1.38092224 10.79735606 0 0 Z " fill="#000000" transform="translate(323,815)"/>
<path d="M0 0 C48.22636333 -0.0171097 96.45272688 -0.03303143 144.67909241 -0.04234314 C145.39228155 -0.0424812 146.10547069 -0.04261925 146.84027162 -0.04276149 C162.33790219 -0.04575405 177.83553279 -0.04852428 193.33316344 -0.05106533 C200.93263956 -0.05231272 208.53211568 -0.05360927 216.1315918 -0.05493164 C216.88785144 -0.0550624 217.64411108 -0.05519316 218.42328769 -0.05532788 C242.95821471 -0.05959308 267.49313944 -0.06710726 292.02806507 -0.07629722 C317.23022716 -0.08572001 342.43238798 -0.09188316 367.63455181 -0.09391499 C371.19004364 -0.09420317 374.74553547 -0.0945288 378.3010273 -0.09487724 C379.00083402 -0.09494467 379.70064074 -0.09501209 380.42165372 -0.09508156 C391.70963228 -0.0962656 402.99760692 -0.10090993 414.28558388 -0.10683203 C425.61986131 -0.11270517 436.95413366 -0.11489028 448.28841298 -0.11350138 C454.4352252 -0.11285766 460.58202587 -0.11387934 466.72883606 -0.11920547 C472.34616166 -0.12403759 477.96346783 -0.1243399 483.58079428 -0.12089889 C485.62252171 -0.12047301 487.66425031 -0.12177033 489.70597541 -0.12488318 C492.46219557 -0.12884401 495.2183438 -0.12676537 497.97456264 -0.12304783 C498.78373442 -0.12567484 499.5929062 -0.12830186 500.42659834 -0.13100848 C505.8858542 -0.1141458 505.8858542 -0.1141458 507 1 C507.29936377 2.84737212 507.54208629 4.70396187 507.76171875 6.5625 C509.5920183 21.27432501 512.0076858 35.39757545 515.73046875 49.76953125 C516.85857914 54.18043486 517.55512921 58.47089375 518 63 C507.75472425 67.84657641 497.2448005 72.043867 486.75 76.3125 C484.78545882 77.1135137 482.82102365 77.91478744 480.85668945 78.71630859 C477.84469902 79.94527543 474.83264656 81.17408753 471.82026672 82.40209961 C462.27009941 86.29535429 452.72790089 90.20788663 443.1875 94.125 C440.77572036 95.11498682 438.36391397 96.10490844 435.95210266 97.09481812 C434.35206352 97.75154583 432.75203702 98.40830432 431.15202332 99.06509399 C425.60736391 101.34093964 420.06169869 103.61432208 414.515625 105.88671875 C397.10326826 113.02227244 379.70219391 120.1843818 362.3125 127.375 C342.53591102 135.55237282 322.73400219 143.66664557 302.92324829 151.76083374 C293.67447931 155.5403132 284.43053954 159.33153433 275.1875 163.125 C274.39135284 163.45172699 273.59520569 163.77845398 272.77493286 164.11508179 C268.78137848 165.75399699 264.78788684 167.39306496 260.79443359 169.03222656 C253.51150157 172.02149664 246.22794989 175.00925625 238.94445801 177.99716187 C236.49906945 179.00038176 234.0537271 180.00371419 231.60839844 181.00708008 C224.36200489 183.98034119 217.11540968 186.95310432 209.86756897 189.9228363 C191.00506615 197.65161142 172.15291609 205.40502093 153.3125 213.1875 C152.32909637 213.59368561 151.34569275 213.99987122 150.33248901 214.41836548 C148.42242671 215.20740415 146.51246584 215.9966884 144.60261536 216.78623962 C142.80441768 217.52914743 141.0057565 218.27093449 139.20658875 219.01148987 C135.49503955 220.54129649 131.79062624 222.07997286 128.11474609 223.69384766 C126.50140381 224.39646729 126.50140381 224.39646729 124.85546875 225.11328125 C123.96883545 225.50942627 123.08220215 225.90557129 122.16870117 226.3137207 C120 227 120 227 117 226 C115.28570512 223.63639696 113.72435643 221.28836126 112.1875 218.8125 C111.70958008 218.05710937 111.23166016 217.30171875 110.73925781 216.5234375 C109.69920579 214.87907594 108.66239454 213.23266123 107.62841797 211.58447266 C105.99853103 208.99766859 104.3483483 206.42501395 102.69140625 203.85546875 C89.05444859 182.66934141 76.22536228 161.02864651 64 139 C63.50918945 138.12279297 63.01837891 137.24558594 62.51269531 136.34179688 C41.14575424 98.08237024 22.78511628 58.38569982 6 17.9375 C5.69160187 17.19709473 5.38320374 16.45668945 5.06546021 15.69384766 C4.20408641 13.62000722 3.35054989 11.54314308 2.5 9.46484375 C2.0153125 8.285271 1.530625 7.10569824 1.03125 5.89038086 C0 3 0 3 0 0 Z " fill="#000000" transform="translate(344,1151)"/>
<path d="M0 0 C1.40283203 1.69555664 1.40283203 1.69555664 2.5078125 3.91015625 C3.14299805 5.13581299 3.14299805 5.13581299 3.79101562 6.38623047 C4.23123047 7.26939941 4.67144531 8.15256836 5.125 9.0625 C12.00188013 22.18237097 20.13928033 33.99686776 29.47265625 45.48583984 C31.68711574 48.2250801 33.49514136 50.82227073 35 54 C4.01851328 85.11870693 -26.97868539 116.22168592 -57.9971473 147.30353928 C-61.65600857 150.96990513 -65.31473903 154.63640149 -68.97338867 158.30297852 C-70.06598635 159.39793699 -70.06598635 159.39793699 -71.18065671 160.51501583 C-82.98707174 172.3475656 -94.78284941 184.19066551 -106.57475557 196.03767235 C-118.66725825 208.18620955 -130.7710625 220.3233994 -142.88551646 232.45004743 C-150.36533697 239.93811616 -157.83611527 247.43498061 -165.29570524 254.94320404 C-170.40623109 260.08535357 -175.52765522 265.21647672 -180.65792217 270.33893044 C-183.62112292 273.29827378 -186.57914483 276.26236417 -189.5243721 279.23960495 C-192.21784594 281.96214219 -194.92464019 284.67063431 -197.64296231 287.36835568 C-198.62677622 288.34962119 -199.60547494 289.33604595 -200.57860681 290.3279059 C-201.89661338 291.66980097 -203.23484751 292.99174048 -204.57412243 294.3124094 C-205.31343791 295.05400321 -206.05275339 295.79559701 -206.81447238 296.55966336 C-209 298 -209 298 -211.58588248 297.84041399 C-214.87597086 296.69505289 -217.59926162 294.90089644 -220.453125 292.94921875 C-221.06594833 292.53925156 -221.67877167 292.12928436 -222.31016541 291.70689392 C-224.29572516 290.3752294 -226.27301108 289.03184889 -228.25 287.6875 C-229.61989849 286.76371501 -230.99009841 285.84037687 -232.3605957 284.91748047 C-242.00152155 278.41193939 -251.59209076 271.8394152 -261 265 C-261.74717285 264.45714355 -262.4943457 263.91428711 -263.26416016 263.35498047 C-279.58854373 251.46413204 -295.63329134 239.26435708 -311.23974609 226.44433594 C-312.81895584 225.14855163 -314.40329286 223.85902202 -315.98828125 222.5703125 C-325.77109046 214.61381644 -335.41653653 206.51604373 -344.75 198.03515625 C-346.74989375 196.22622457 -348.77269432 194.45108199 -350.8125 192.6875 C-358.57542843 185.91860509 -366.18407276 178.94162413 -373.38671875 171.578125 C-375.22992192 169.77508849 -377.16387265 168.11118939 -379.125 166.4375 C-382.49760537 163.53732184 -385.26554084 160.50352579 -388 157 C-381.07736011 153.40943233 -374.06223948 150.273205 -366.828125 147.3671875 C-365.76946228 146.93789948 -364.71079956 146.50861145 -363.62005615 146.0663147 C-361.34814721 145.14544071 -359.07552272 144.22633041 -356.80224609 143.30883789 C-351.3246512 141.09784718 -345.85147159 138.87599072 -340.37818909 136.65435028 C-338.51099843 135.89655983 -336.64362459 135.13922199 -334.77624512 134.38189697 C-323.49681649 129.80422734 -312.24520979 125.16095253 -301 120.5 C-284.21110831 113.54580168 -267.39468716 106.66122244 -250.5625 99.8125 C-249.41538544 99.34575867 -248.26827087 98.87901733 -247.08639526 98.39813232 C-245.94727692 97.93465393 -244.80815857 97.47117554 -243.63452148 96.99365234 C-230.26966781 91.55563624 -216.90986973 86.10579902 -203.5625 80.625 C-202.78407745 80.30536285 -202.00565491 79.98572571 -201.2036438 79.65640259 C-197.34669051 78.072461 -193.48994761 76.48800791 -189.63330078 74.90332031 C-182.40761549 71.93460564 -175.18000228 68.97058908 -167.9526062 66.00604248 C-163.8849987 64.33753739 -159.81750488 62.66875524 -155.75 61 C-154.12500055 60.33333199 -152.50000055 59.66666533 -150.875 59 C-150.070625 58.67 -149.26625 58.34 -148.4375 58 C-133 51.66666667 -117.5625 45.33333333 -102.125 39 C-100.9185508 38.50504532 -100.9185508 38.50504532 -99.68772888 38.00009155 C-98.06196814 37.33311435 -96.4362052 36.66614251 -94.81044006 35.99917603 C-90.7595614 34.33730438 -86.70872042 32.67534098 -82.65795898 31.01318359 C-75.20698475 27.95591888 -67.75571041 24.89939469 -60.30303955 21.8462677 C-57.73688585 20.79489249 -55.17092519 19.74304722 -52.60498047 18.69116211 C-49.28580542 17.33060657 -45.96573496 15.97226972 -42.64501953 14.61547852 C-35.53821214 11.70842335 -28.44498995 8.77982182 -21.39453125 5.73828125 C-20.27554443 5.25858887 -19.15655762 4.77889648 -18.00366211 4.28466797 C-15.99297522 3.418888 -13.98681802 2.54246885 -11.98657227 1.65283203 C-11.12217529 1.2814209 -10.25777832 0.91000977 -9.3671875 0.52734375 C-8.63612793 0.20499756 -7.90506836 -0.11734863 -7.15185547 -0.44946289 C-4.36713017 -1.1619153 -2.70682165 -0.95365285 0 0 Z " fill="#000000" transform="translate(883,1255)"/>
<path d="M0 0 C20.46 0 40.92 0 62 0 C66.07431944 5.82045634 70.10904887 11.59084896 73.9375 17.5625 C74.61522461 18.614375 74.61522461 18.614375 75.30664062 19.6875 C80.25315432 27.37331809 85.17216975 35.07688207 90.09545898 42.77758789 C93.88035916 48.69595034 97.67632038 54.60662224 101.5 60.5 C106.73603944 68.57022593 111.91607597 76.67598475 117.09765625 84.78125 C120.88197868 90.69829305 124.67717753 96.60776215 128.5 102.5 C133.15115212 109.67075075 137.76668552 116.86417222 142.375 124.0625 C143.05369141 125.12210938 143.73238281 126.18171875 144.43164062 127.2734375 C145.40520508 128.79517578 145.40520508 128.79517578 146.3984375 130.34765625 C147.01686523 131.31203613 147.63529297 132.27641602 148.27246094 133.27001953 C149.83639483 135.74145944 151.3460404 138.23890936 152.8515625 140.74609375 C153.56054688 141.81988281 154.26953125 142.89367188 155 144 C155.66 144 156.32 144 157 144 C158.63603899 141.67304036 158.63603899 141.67304036 160.31640625 138.640625 C160.6443367 138.07363388 160.97226715 137.50664276 161.31013489 136.92247009 C162.02400045 135.68688582 162.73458521 134.44940174 163.44232178 133.21029663 C165.35591592 129.86153294 167.29452748 126.52728392 169.23046875 123.19140625 C169.6285675 122.50407913 170.02666626 121.81675201 170.43682861 121.1085968 C174.32374513 114.41081587 178.33593266 107.79454276 182.375 101.1875 C188.49212649 91.1689496 194.52203708 81.10218363 200.5 71 C205.10793602 63.21389927 209.72287303 55.43316436 214.41796875 47.69921875 C214.94860428 46.81978104 214.94860428 46.81978104 215.48995972 45.9225769 C217.24909298 43.01500229 219.03689227 40.13450345 220.89355469 37.28808594 C225.41405105 30.26398069 228.33847095 23.81193924 230.34399414 15.75219727 C232.25 11.75 232.25 11.75 243 0 C263.13 0 283.26 0 304 0 C304 62.37 304 124.74 304 189 C286.51 189 269.02 189 251 189 C250.67 156.99 250.34 124.98 250 92 C243.73 102.56 237.46 113.12 231 124 C222.5 138 222.5 138 218.3671875 144.78515625 C211.41433391 156.22088933 204.61577004 167.75000914 197.80276489 179.26939392 C196.86955892 180.84688364 195.93482672 182.4234702 195 184 C194.60377945 184.86823898 194.2075589 185.73647797 193.79933167 186.63102722 C192 189 192 189 189.0514679 189.76950073 C187.2418885 189.86595383 187.2418885 189.86595383 185.39575195 189.96435547 C184.72851105 190.00524292 184.06127014 190.04613037 183.37380981 190.08825684 C181.16219042 190.21240624 178.95218433 190.29508628 176.73828125 190.3671875 C175.59739579 190.40711508 175.59739579 190.40711508 174.43346214 190.44784927 C170.3952702 190.58155455 166.35784618 190.67832763 162.31811523 190.75048828 C158.99717453 190.8168553 155.69189234 190.95500841 152.37670898 191.16064453 C125.76928463 192.77536942 125.76928463 192.77536942 117.9508667 186.58630371 C112.82789768 180.69400401 109.4488192 174.12711636 106.35853577 166.99920654 C104.48451688 162.86198039 102.07647829 159.22369933 99.5 155.5 C98.62496868 154.15881076 97.75344689 152.81531998 96.88671875 151.46875 C96.43216309 150.76621094 95.97760742 150.06367188 95.50927734 149.33984375 C90.35426685 141.34799312 85.24260702 133.32814265 80.12011719 125.31542969 C77.96916955 121.95178748 75.8169096 118.5889891 73.6640625 115.2265625 C72.95596436 114.12054687 72.24786621 113.01453125 71.51831055 111.875 C70.17609324 109.77860239 68.83381279 107.68224521 67.49145508 105.5859375 C66.87423584 104.62171875 66.2570166 103.6575 65.62109375 102.6640625 C65.0892749 101.83342285 64.55745605 101.0027832 64.00952148 100.14697266 C61.00063251 95.43495967 58.00153635 90.71669998 55 86 C54.67 119.99 54.34 153.98 54 189 C36.18 189 18.36 189 0 189 C0 126.63 0 64.26 0 0 Z " fill="#000000" transform="translate(1544,2044)"/>
<path d="M0 0 C27.06 0 54.12 0 82 0 C95.72222222 15.83333333 95.72222222 15.83333333 101.625 23.125 C104.5249597 26.63547753 107.50761195 30.06829935 110.5 33.5 C114.99747977 38.65851311 119.38995452 43.88157094 123.69921875 49.19921875 C126.88035204 53.07166793 130.14753555 56.86728783 133.41601562 60.66601562 C138.18706167 66.21107167 142.91348405 71.79283679 147.63232422 77.38232422 C149.02459417 79.02908979 150.42005473 80.67310067 151.81640625 82.31640625 C156.04853633 87.30026248 160.25737398 92.29559272 164.375 97.375 C168.53992406 102.4987555 172.85493761 107.48186523 177.22021484 112.43505859 C181.36348128 117.16635163 185.11836695 122.00932893 189 127 C189.495 64.63 189.495 64.63 190 1 C208.81 1 227.62 1 247 1 C247 62.71 247 124.42 247 188 C218.29 188 189.58 188 160 188 C147.08077994 174.00417827 147.08077994 174.00417827 141.14453125 166.61328125 C139.00125044 164.00152377 136.7761967 161.49634698 134.5 159 C131.47717579 155.68010514 128.57487839 152.30235888 125.75 148.8125 C120.53481485 142.37288007 115.08668248 136.14544597 109.64648438 129.89648438 C107.06362591 126.92144811 104.49943086 123.9305594 101.9375 120.9375 C101.44660889 120.36410889 100.95571777 119.79071777 100.44995117 119.19995117 C99.46114797 118.04469482 98.47245951 116.88934024 97.48388672 115.73388672 C94.99104476 112.82105954 92.49537234 109.91065939 90 107 C88.9999866 105.83334482 87.99998659 104.66667816 87 103.5 C86.505 102.9225 86.01 102.345 85.5 101.75 C84 100 82.5 98.25 81 96.5 C80.5042749 95.92169434 80.0085498 95.34338867 79.49780273 94.74755859 C78.50496586 93.589168 77.5122882 92.43064092 76.51977539 91.27197266 C73.91151652 88.22750276 71.29995221 85.18595094 68.68359375 82.1484375 C68.14025391 81.51679688 67.59691406 80.88515625 67.03710938 80.234375 C65.99906988 79.02776499 64.96006405 77.82198539 63.91992188 76.6171875 C61.50261249 73.80528303 59.22771341 70.97028455 57 68 C56.67 107.6 56.34 147.2 56 188 C37.52 188 19.04 188 0 188 C0 125.96 0 63.92 0 0 Z " fill="#000000" transform="translate(613,2046)"/>
<path d="M0 0 C27.9675 -0.061875 55.935 -0.12375 84.75 -0.1875 C93.5681543 -0.21481201 102.38630859 -0.24212402 111.47167969 -0.27026367 C122.27197266 -0.28381348 122.27197266 -0.28381348 127.33428955 -0.28633118 C130.85632034 -0.28911668 134.37821432 -0.30032133 137.90020752 -0.31672668 C142.40379445 -0.33742384 146.90718469 -0.34345144 151.41081476 -0.33921683 C153.05672004 -0.34010129 154.70263275 -0.34597893 156.34849691 -0.35764539 C173.59403122 -0.47413098 186.93333249 2.63225775 199.8359375 14.69140625 C211.73084447 27.38073841 215.80404096 42.07059968 215.62890625 59.04296875 C215.62973877 60.42768032 215.63221248 61.81239174 215.63621521 63.19709778 C215.63904229 66.07042915 215.6246761 68.94296764 215.59692383 71.81616211 C215.5627474 75.46385841 215.56892052 79.11014966 215.5875864 82.75791454 C215.59824542 85.60735923 215.58914054 88.45648713 215.57420158 91.30590248 C215.56664366 93.29304866 215.57380137 95.28023387 215.58143616 97.26737976 C215.39483433 111.78429026 210.68835391 124.04899063 200.75 134.75 C189.61719003 145.0893803 176.85323186 149.65820615 161.80566406 149.45410156 C160.65299042 149.45468567 159.50031677 149.45526978 158.31271362 149.45587158 C154.54669853 149.45311069 150.78149983 149.42211236 147.015625 149.390625 C144.38719108 149.38315554 141.75875156 149.37746594 139.13031006 149.37347412 C132.94694401 149.36110977 126.76386551 149.32837841 120.5806253 149.28807616 C113.53336351 149.24315284 106.486087 149.2213201 99.43871737 149.20129442 C84.95897635 149.15963862 70.47954544 149.08636968 56 149 C56 163.19 56 177.38 56 192 C37.52 192 19.04 192 0 192 C0 128.64 0 65.28 0 0 Z M56 51 C56 66.18 56 81.36 56 97 C71.2431475 97.08732754 71.2431475 97.08732754 86.48632812 97.14648438 C92.70784223 97.16438418 98.92922326 97.18550896 105.15063477 97.22631836 C110.16919471 97.25902983 115.18761185 97.27687785 120.20627022 97.28463173 C122.11633106 97.29015412 124.02638452 97.30093784 125.9363842 97.31719017 C128.62173942 97.3391213 131.30651231 97.34196041 133.99194336 97.34057617 C135.16367851 97.35675491 135.16367851 97.35675491 136.35908508 97.3732605 C145.02926427 97.32522773 152.05181136 94.89233812 158.3359375 88.87109375 C163.09463787 83.5203485 163.55028499 77.88449975 163.34375 71 C162.50536112 63.68315155 159.53765511 58.7998073 153.87890625 54.19140625 C148.6449493 50.872577 144.0993774 50.72097571 138.07885742 50.77294922 C137.19055237 50.77265717 136.30224731 50.77236511 135.38702393 50.77206421 C132.45973846 50.77345418 129.53270959 50.78899977 126.60546875 50.8046875 C124.57237385 50.80841881 122.53927715 50.81126523 120.50617981 50.81326294 C115.16158054 50.82089007 109.8170904 50.84053073 104.47253418 50.8626709 C98.05646266 50.88675113 91.6403546 50.89591468 85.22425079 50.90757751 C75.48275802 50.92695559 65.74150458 50.96528468 56 51 Z " fill="#000000" transform="translate(1896,2042)"/>
<path d="M0 0 C5.38896863 4.49917111 10.40124493 9.25729639 15.35862732 14.22491455 C16.17315166 15.03717334 16.987676 15.84943212 17.8268829 16.68630481 C20.54378523 19.39689865 23.25712283 22.11103205 25.97045898 24.82519531 C27.92173538 26.77402058 29.87374377 28.72211211 31.82569885 30.67025757 C36.56811692 35.40439391 41.30777697 40.14128206 46.04633521 44.87928155 C49.8955711 48.72804158 53.74559714 52.57600942 57.59617805 56.42342377 C68.51393849 67.33238835 79.42961085 78.24343611 90.34259879 89.15717497 C90.93006609 89.74468223 91.51753339 90.33218949 92.12280273 90.9375 C92.71098595 91.52572409 93.29916916 92.11394819 93.90517611 92.71999726 C103.45818072 102.27340916 113.01617587 111.82181089 122.57641935 121.36797825 C132.39343853 131.17065697 142.20674828 140.97703555 152.01616722 150.7873199 C157.52347447 156.29495968 163.0323238 161.80103673 168.54516411 167.30313873 C173.23330616 171.98220696 177.91801221 176.66468117 182.59821104 181.35169509 C184.98757793 183.74434158 187.37856052 186.13531466 189.77387619 188.52200699 C192.36395578 191.10444507 194.94788053 193.69288366 197.53025818 196.28302002 C198.2958911 197.04350938 199.06152403 197.80399874 199.85035795 198.58753324 C200.53575338 199.27752746 201.22114881 199.96752169 201.9273138 200.67842484 C202.5249963 201.27588996 203.12267879 201.87335509 203.73847288 202.48892522 C205 204 205 204 205 206 C204.24082275 206.37697021 203.48164551 206.75394043 202.69946289 207.14233398 C199.15267897 208.90512611 195.6071097 210.67034114 192.0625 212.4375 C191.41930817 212.75812408 190.77611633 213.07874817 190.11343384 213.40908813 C182.75640621 217.0798461 175.42313118 220.78124809 168.1875 224.6875 C158.8095955 229.74153172 149.17023276 234.25852144 139.52685547 238.77978516 C137.16716448 239.91927652 134.87263329 241.14383871 132.56640625 242.38671875 C129 244 129 244 126.91845703 243.76269531 C123.76759344 242.5100486 122.22185842 239.7362786 120.3125 237.0625 C119.41800997 235.86520659 118.52083794 234.66991254 117.62109375 233.4765625 C117.17620605 232.88391602 116.73131836 232.29126953 116.27294922 231.68066406 C97.7609719 207.23945734 68.55256778 193.82074434 38.76953125 189.53515625 C36.17423489 189.26793956 33.60694231 189.0925044 31 189 C30.22140625 188.97164062 29.4428125 188.94328125 28.640625 188.9140625 C21.07870885 188.79050178 13.53552646 189.43734736 6 190 C1.27616782 180.17212114 -2.64772507 170.018235 -6.66693115 159.88870239 C-8.87657144 154.32150641 -11.09584588 148.75816037 -13.31640625 143.1953125 C-13.77934082 142.03558426 -14.24227539 140.87585602 -14.71923828 139.6809845 C-19.41557976 127.93260072 -24.18691236 116.21515134 -28.97042847 104.50204468 C-32.57423035 95.6769779 -36.17109647 86.84907762 -39.76855469 78.02142334 C-40.57363961 76.04610023 -41.37896796 74.07087631 -42.18457031 72.09576416 C-44.28380264 66.94796158 -46.37686473 61.79776572 -48.45782471 56.64254761 C-49.0617488 55.14945611 -49.66809256 53.65734068 -50.27703857 52.16629028 C-51.0948314 50.16289116 -51.90404219 48.15624534 -52.7109375 46.1484375 C-53.15743652 45.04677246 -53.60393555 43.94510742 -54.06396484 42.81005859 C-55 40 -55 40 -55 36 C-54.50298584 35.74943848 -54.00597168 35.49887695 -53.49389648 35.24072266 C-37.54844623 27.15338101 -23.14275357 17.91933395 -9 7 C-8.09507813 6.30132813 -7.19015625 5.60265625 -6.2578125 4.8828125 C-4.16716448 3.26109487 -2.08087706 1.63422416 0 0 Z " fill="#000000" transform="translate(1313,1341)"/>
<path d="M0 0 C1.0160582 -0.00426498 2.03211639 -0.00852997 3.07896423 -0.01292419 C4.18292542 -0.01247101 5.2868866 -0.01201782 6.42430115 -0.0115509 C7.59569138 -0.01490952 8.7670816 -0.01826813 9.97396851 -0.02172852 C13.84992024 -0.03123329 17.72582872 -0.03318168 21.60179138 -0.03425598 C22.94159909 -0.03568005 24.28140662 -0.03727608 25.62121391 -0.03904152 C32.64412234 -0.04829045 39.66701183 -0.05237738 46.68992615 -0.05158997 C53.21032581 -0.05099081 59.73064231 -0.0615119 66.25102097 -0.07733363 C71.86740267 -0.09047032 77.48375742 -0.09577123 83.10015434 -0.09513456 C86.44616472 -0.09488116 89.79204288 -0.09858163 93.13804817 -0.10831261 C96.88067006 -0.11817435 100.6230817 -0.11520957 104.3657074 -0.10920715 C106.00039474 -0.11763641 106.00039474 -0.11763641 107.66810608 -0.12623596 C124.89356708 -0.05648098 139.34158759 3.76549738 151.84788513 16.13371277 C157.3267605 22.43747457 160.4808586 29.16726864 162.84788513 37.13371277 C163.11484192 37.9910199 163.11484192 37.9910199 163.38719177 38.86564636 C164.00288078 41.89678089 163.95910509 44.77556177 163.94554138 47.86808777 C163.94304382 49.03565613 163.94054626 50.20322449 163.93797302 51.40617371 C163.92886902 52.8837616 163.91976501 54.36134949 163.91038513 55.88371277 C163.88976013 60.58621277 163.86913513 65.28871277 163.84788513 70.13371277 C146.02788513 70.13371277 128.20788513 70.13371277 109.84788513 70.13371277 C108.85788513 66.17371277 108.85788513 66.17371277 107.84788513 62.13371277 C104.76105877 56.59871378 100.78120285 52.51348095 94.84788513 50.13371277 C91.67015052 49.8167303 91.67015052 49.8167303 88.09495544 49.84318542 C87.42447174 49.8364682 86.75398804 49.82975098 86.06318665 49.8228302 C83.85071863 49.80386321 81.63855436 49.79992626 79.42601013 49.79777527 C77.88147356 49.79134476 76.33693821 49.78461621 74.79240417 49.77760315 C71.55435872 49.76563246 68.3164199 49.76192194 65.07835388 49.7631073 C60.9447138 49.7633101 56.81176427 49.73604831 52.67828751 49.70156288 C49.48679006 49.67923493 46.29545699 49.6752716 43.10388947 49.67632675 C41.5809619 49.6739781 40.05802929 49.66519628 38.53517914 49.64966202 C28.73916848 49.55911816 21.92773292 49.97747367 14.09788513 56.38371277 C7.8060495 64.0737341 7.25035412 70.43961446 7.31663513 80.10246277 C7.31280823 81.33734436 7.30898132 82.57222595 7.30503845 83.8445282 C7.30232528 86.446628 7.30964454 89.04875535 7.32640076 91.65080261 C7.34781649 95.62098828 7.32657629 99.58936427 7.30101013 103.55949402 C7.30365351 106.09465424 7.30877869 108.62981334 7.31663513 111.16496277 C7.30853821 112.34538147 7.30044128 113.52580017 7.292099 114.74198914 C7.38044076 122.55247325 8.39468948 127.94876852 13.48851013 134.12199402 C14.01960388 134.55898621 14.55069763 134.99597839 15.09788513 135.44621277 C15.61866638 135.89609558 16.13944763 136.34597839 16.67601013 136.80949402 C24.72693041 141.71823858 32.52167544 141.60799645 41.71507263 141.60246277 C43.15942169 141.60957823 44.60376797 141.61727921 46.04811096 141.62553406 C49.06559621 141.63892718 52.08282003 141.64057123 55.10032654 141.63468933 C58.94241274 141.62879905 62.78323273 141.65937908 66.62507439 141.69980621 C69.6056529 141.72582089 72.58593206 141.7285483 75.56660843 141.72491455 C76.98182988 141.7265931 78.3970671 141.73611202 79.81217575 141.75405884 C89.12289118 141.85915968 97.43453816 141.27358716 104.48799133 134.57646179 C108.23590899 129.91118282 108.47066069 126.33122278 109.84788513 120.13371277 C127.66788513 120.13371277 145.48788513 120.13371277 163.84788513 120.13371277 C163.90976013 124.62996277 163.97163513 129.12621277 164.03538513 133.75871277 C164.07635315 135.83853455 164.07635315 135.83853455 164.1181488 137.96037292 C164.20318555 150.92801974 162.6175185 162.49352521 154.84788513 173.13371277 C154.18659607 174.08504089 154.18659607 174.08504089 153.51194763 175.05558777 C147.19543312 183.30721944 137.81773459 187.94509054 127.84788513 190.13371277 C123.55036544 190.53997597 119.2838259 190.54446699 114.96946716 190.52189636 C113.71931824 190.52715332 112.46916931 190.53241028 111.18113708 190.53782654 C107.78001035 190.54870426 104.37943725 190.54624386 100.97834253 190.53668928 C97.39919508 190.52903572 93.82006952 190.53615428 90.24092102 190.54084778 C84.23079743 190.5462903 78.2207848 190.5391549 72.2106781 190.52482605 C65.290788 190.50851726 58.37116339 190.51378113 51.45127976 190.53030527 C45.48233958 190.54398107 39.51347869 190.54580977 33.54452789 190.53798926 C29.9917955 190.53334411 26.43918727 190.53259946 22.88646317 190.54259872 C18.91923709 190.55298646 14.95230092 190.5385321 10.98509216 190.52189636 C9.82834991 190.52796906 8.67160767 190.53404175 7.47981262 190.54029846 C-7.85465654 190.42192692 -20.85284223 185.93204352 -32.08961487 175.31730652 C-43.09077344 163.67024659 -47.29380612 150.09368261 -47.31324768 134.37150574 C-47.31821259 133.40479446 -47.32317749 132.43808319 -47.32829285 131.44207764 C-47.34286099 128.25334451 -47.3497084 125.06466117 -47.35523987 121.87590027 C-47.36099674 119.64877828 -47.3667544 117.42165629 -47.37251282 115.1945343 C-47.38300832 110.52582062 -47.38886014 105.85712408 -47.39234924 101.18840027 C-47.39782376 95.2304032 -47.42183583 89.27263583 -47.4503212 83.31471062 C-47.46902448 78.71279762 -47.47415732 74.11093903 -47.47568512 69.50899124 C-47.478696 67.31393812 -47.48667113 65.11888559 -47.4998703 62.92387009 C-47.6058705 43.93735249 -46.33271081 27.89033074 -32.67555237 13.46183777 C-23.5925104 5.08181762 -12.42390055 0.0236738 0 0 Z " fill="#000000" transform="translate(1058.152114868164,2043.8662872314453)"/>
<path d="M0 0 C17.49 0 34.98 0 53 0 C53.05607422 12.81972656 53.05607422 12.81972656 53.11328125 25.8984375 C53.14742054 32.01169178 53.18341366 38.12491318 53.22207737 44.2381382 C53.2718754 52.15076614 53.31734603 60.06334013 53.34643555 67.97607422 C53.3694869 74.24252894 53.40296379 80.50882875 53.44870156 86.77516043 C53.4725383 90.08987046 53.48977362 93.40439676 53.49761391 96.71918869 C53.50727555 100.42939615 53.53536131 104.13905063 53.56762695 107.84912109 C53.56619186 108.93525696 53.56475677 110.02139282 53.5632782 111.14044189 C53.67196962 120.01254289 54.7269629 128.93733958 61.19752502 135.54455566 C70.47781523 143.03811091 82.78155426 141.58339044 94.00390625 141.53125 C96.05313806 141.53394864 98.10236861 141.53783415 100.15159607 141.54284668 C104.4324877 141.54872286 108.71304402 141.54023862 112.99389648 141.52148438 C118.46348757 141.49868169 123.93229398 141.51183851 129.40185642 141.53577423 C133.62881823 141.55027074 137.85559586 141.54560879 142.0825634 141.53526306 C144.09866366 141.53260718 146.11478099 141.53582518 148.13086128 141.54518127 C150.9543055 141.55541216 153.77650157 141.53975555 156.59985352 141.51757812 C157.42140427 141.52567505 158.24295502 141.53377197 159.08940125 141.54211426 C165.99521998 141.4423076 171.9325262 139.48368079 177.33984375 135.10546875 C178.13068359 134.15607422 178.13068359 134.15607422 178.9375 133.1875 C179.48277344 132.56230469 180.02804687 131.93710938 180.58984375 131.29296875 C184.62509308 124.73149685 184.30415208 117.65196846 184.31884766 110.18969727 C184.32889328 109.01824661 184.3389389 107.84679596 184.34928894 106.6398468 C184.38008864 102.7820381 184.39714746 98.92429872 184.4140625 95.06640625 C184.43277672 92.38597104 184.45225471 89.70555228 184.4727478 87.02513123 C184.51943471 80.70010609 184.55622743 74.37506409 184.58942068 68.04995531 C184.6314739 60.13805995 184.68681393 52.22626455 184.7421875 44.31445312 C184.84084619 30.20969041 184.9194853 16.10490386 185 2 C202.49 2 219.98 2 238 2 C238.09042605 21.62836572 238.16405504 41.2565618 238.20724869 60.8850832 C238.22784068 69.99971812 238.2558967 79.11421407 238.30175781 88.22875977 C238.34172885 96.17651329 238.36745724 104.12416612 238.37635398 112.07201737 C238.38155141 116.27720148 238.39369644 120.48209763 238.42292023 124.6871891 C238.450252 128.65249773 238.45840953 132.61740222 238.45243073 136.5827961 C238.45352308 138.03111219 238.4613708 139.47944307 238.4768219 140.92767715 C238.62196427 155.24503795 235.14453211 165.91539788 225.625 176.6875 C215.93087637 185.22756129 206.46970039 190.09932858 193.33605957 190.14717102 C192.67942432 190.15084771 192.02278907 190.1545244 191.34625578 190.1583125 C189.15335518 190.16929562 186.96050205 190.17318405 184.76757812 190.17700195 C183.19189302 190.18327085 181.61620938 190.18991803 180.04052734 190.19691467 C174.87077861 190.21791336 169.70102974 190.22831572 164.53125 190.23828125 C162.746943 190.2423309 160.96263616 190.24644788 159.17832947 190.25063133 C150.79072241 190.26967677 142.4031241 190.28390704 134.01549959 190.2922433 C124.35758953 190.30200225 114.69990948 190.32828935 105.0420804 190.36874419 C97.56243088 190.3989913 90.08284695 190.41372045 82.60313749 190.41702431 C78.14312234 190.41936572 73.68335306 190.42820638 69.22340393 190.45348549 C65.02080608 190.47692109 60.81861329 190.48093792 56.6159668 190.47072411 C55.08302964 190.47023231 53.55007147 190.47644612 52.01719666 190.49028015 C36.62107474 190.62132615 24.16742619 187.68323115 12.78125 176.8984375 C1.60337479 165.09493494 -0.31015439 152.84196066 -0.22705078 137.13867188 C-0.22648592 135.63997404 -0.22680469 134.14127564 -0.22793579 132.64257812 C-0.22850739 128.59354516 -0.21678445 124.54463174 -0.20278788 120.49562645 C-0.19024825 116.25689685 -0.18910747 112.01816423 -0.18673706 107.77941895 C-0.18053177 99.76148407 -0.16413386 91.74360401 -0.14403808 83.72569323 C-0.12164943 74.59388747 -0.1106782 65.46207904 -0.10064721 56.33025265 C-0.07976676 37.55346441 -0.04310245 18.77675128 0 0 Z " fill="#000000" transform="translate(331,2043)"/>
<path d="M0 0 C28.71 0 57.42 0 87 0 C93.88771422 14.9233808 93.88771422 14.9233808 96.6015625 21.3671875 C96.91558517 22.1078093 97.22960785 22.84843109 97.55314636 23.61149597 C98.22714908 25.20180287 98.9002217 26.79250425 99.57241821 28.38357544 C100.66319747 30.96541209 101.75646971 33.54618128 102.8503418 36.12670898 C104.02249472 38.89203246 105.19447636 41.6574274 106.3657074 44.42314148 C110.41981157 53.99624453 114.49064812 63.56220228 118.56304932 73.12753296 C119.82082023 76.08204427 121.07819764 79.03672274 122.33544922 81.99145508 C126.60549488 92.02651395 130.87757316 102.06070295 135.15234375 112.09375 C138.90519582 120.90218513 142.65396404 129.71234628 146.39781189 138.52461243 C148.405884 143.25106167 150.41571709 147.97674425 152.4296875 152.70068359 C154.35109605 157.20792964 156.26731044 161.71734827 158.17956543 166.22848511 C158.88706884 167.89507964 159.59642811 169.56088767 160.30773926 171.2258606 C161.27786174 173.49745102 162.24132711 175.77175008 163.203125 178.046875 C163.48953857 178.71321457 163.77595215 179.37955414 164.07104492 180.06608582 C165.25935933 182.89465188 166 184.89582873 166 188 C145.87 188 125.74 188 105 188 C97 161 97 161 97 158 C62.35 158 27.7 158 -8 158 C-8.99 160.97 -9.98 163.94 -11 167 C-13.97 173.93 -16.94 180.86 -20 188 C-38.81 188 -57.62 188 -77 188 C-76.1769652 183.06179117 -75.02638805 179.21661218 -73.0703125 174.71875 C-72.76867691 174.00992676 -72.46704132 173.30110352 -72.15626526 172.57080078 C-71.49857199 171.02673356 -70.83800137 169.48388949 -70.17489624 167.94213867 C-68.34075058 163.67577607 -66.52957434 159.39964792 -64.71484375 155.125 C-64.33046646 154.22116577 -63.94608917 153.31733154 -63.55006409 152.3861084 C-59.18972688 142.12081061 -54.93609947 131.81192625 -50.6875 121.5 C-49.88562728 119.55531881 -49.08370638 117.61065749 -48.28173828 115.66601562 C-46.66174678 111.73719549 -45.04237509 107.80812054 -43.42333984 103.87890625 C-41.03117996 98.07433878 -38.63535177 92.27129105 -36.23828125 86.46875 C-35.84642136 85.52016113 -35.45456146 84.57157227 -35.05082703 83.59423828 C-33.08782116 78.84264658 -31.12443775 74.091211 -29.16088867 69.33984375 C-25.44421231 60.34517449 -21.73070811 51.34923077 -18.02722168 42.34912109 C-16.27489526 38.09116749 -14.52093504 33.83388777 -12.7668457 29.57666016 C-11.92992668 27.54411949 -11.09381119 25.51124776 -10.25854492 23.47802734 C-9.10147039 20.66159688 -7.94164938 17.84631189 -6.78125 15.03125 C-6.44150146 14.2021814 -6.10175293 13.37311279 -5.75170898 12.5189209 C-5.43210205 11.74504028 -5.11249512 10.97115967 -4.78320312 10.17382812 C-4.37285828 9.17615417 -4.37285828 9.17615417 -3.95422363 8.1583252 C-2.73224316 5.39437014 -1.35149427 2.70298854 0 0 Z M43 34 C42.36538093 35.5653937 41.73076235 37.1307876 41.09614563 38.69618225 C40.51728555 40.12403157 39.93841765 41.55187772 39.35954285 42.97972107 C37.71200918 47.04353687 36.06462082 51.10741148 34.41748047 55.17138672 C31.20071677 63.10766493 27.98304314 71.04356765 24.7603302 78.97743225 C23.37989149 82.37601395 22.00011759 85.77486537 20.62039185 89.17373657 C19.95770059 90.80568769 19.29467657 92.43750372 18.63131714 94.06918335 C17.7038954 96.35047092 16.77760829 98.63221612 15.8515625 100.9140625 C15.57620163 101.59053329 15.30084076 102.26700409 15.01713562 102.963974 C13.93781492 105.62612609 12.9087469 108.2737593 12 111 C32.46 111 52.92 111 74 111 C73.28565737 107.42828686 72.63633583 104.78976276 71.30102539 101.51464844 C70.77850189 100.22363472 70.77850189 100.22363472 70.24542236 98.90653992 C69.67727814 97.52194328 69.67727814 97.52194328 69.09765625 96.109375 C68.50691315 94.65450432 68.50691315 94.65450432 67.90423584 93.17024231 C66.62763263 90.02852765 65.34506532 86.88928479 64.0625 83.75 C63.19116188 81.60819021 62.32031238 79.46618157 61.44995117 77.32397461 C60.15875621 74.14620463 58.86725025 70.96856559 57.5740509 67.79161072 C54.29125488 59.72665759 51.03818821 51.65046149 47.8125 43.5625 C47.40974854 42.55348633 47.00699707 41.54447266 46.59204102 40.50488281 C45.72718062 38.33692409 44.86303156 36.16868723 44 34 C43.67 34 43.34 34 43 34 Z " fill="#000000" transform="translate(1335,2047)"/>
<path d="M0 0 C14.69219707 12.28175849 23.21357176 30.04401145 25 49 C26.37302686 68.51659604 20.64396352 87.03459576 8 102 C-4.98381288 116.69050376 -22.50122307 126.09547018 -42.26171875 127.3203125 C-60.79805596 128.01763568 -79.46218538 122.93793021 -93.5625 110.4375 C-95.05282036 108.96957177 -96.53317623 107.49140741 -98 106 C-98.62003906 105.46117187 -99.24007813 104.92234375 -99.87890625 104.3671875 C-111.04554872 94.42462888 -117.40898145 77.52808859 -119 63 C-120.20667668 41.07097188 -114.34812601 22.44993469 -99.98046875 5.63671875 C-73.36122287 -22.95798137 -29.78838555 -23.54368493 0 0 Z " fill="#CC2128" transform="translate(2135,1061)"/>
<path d="M0 0 C14.11074309 14.61504456 21.35567494 32.63421117 21.14282227 52.97509766 C20.47939298 72.48133513 12.06414076 91.55083972 -2.2109375 104.9453125 C-10.98847132 112.43169194 -20.27367741 117.38665905 -31.2109375 120.9453125 C-32.02433594 121.21085938 -32.83773438 121.47640625 -33.67578125 121.75 C-52.20919577 126.50549828 -72.54089522 122.67825379 -88.8046875 113.14453125 C-93.8481364 109.99938047 -98.07120506 106.19210699 -102.2109375 101.9453125 C-102.97921875 101.20925781 -103.7475 100.47320312 -104.5390625 99.71484375 C-113.78920249 90.32311999 -119.67302221 77.83179617 -122.2109375 64.9453125 C-122.4378125 63.8315625 -122.6646875 62.7178125 -122.8984375 61.5703125 C-124.65510009 41.19302651 -120.5798894 22.12076552 -107.7734375 5.8828125 C-106.28528287 4.2073731 -104.76574184 2.55909218 -103.2109375 0.9453125 C-102.52515625 0.23117188 -101.839375 -0.48296875 -101.1328125 -1.21875 C-73.09471379 -28.1145558 -27.39382631 -27.14212894 0 0 Z " fill="#CC2128" transform="translate(1554.2109375,186.0546875)"/>
<path d="M0 0 C14.75288799 11.91323437 24.3717295 28.10265324 27 47 C28.99515412 68.13322048 23.93503152 86.41319215 11.1875 103.375 C-0.82253329 117.40606403 -18.42001857 127.11641305 -36.9375 128.87109375 C-37.618125 128.91363281 -38.29875 128.95617188 -39 129 C-40.175625 129.07927734 -40.175625 129.07927734 -41.375 129.16015625 C-61.2064314 129.8389106 -78.8856658 122.70693361 -93.65625 109.65234375 C-107.54385796 96.45493317 -115.6832828 78.67188919 -116.4050293 59.48632812 C-116.67779098 40.17562125 -110.12283554 21.98982245 -97.34375 7.39453125 C-71.47010649 -19.03970787 -29.34299709 -23.33355128 0 0 Z " fill="#CC2128" transform="translate(1383,1591)"/>
<path d="M0 0 C17.49 0 34.98 0 53 0 C53 62.37 53 124.74 53 189 C35.51 189 18.02 189 0 189 C0 126.63 0 64.26 0 0 Z " fill="#000000" transform="translate(906,2045)"/>
</svg>
